<svg version="1.1" id="Layer_1" xmlns="http://www.w3.org/2000/svg" xmlns:xlink="http://www.w3.org/1999/xlink" x="0px" y="0px"
	 width="100%" viewBox="0 0 432 640" enable-background="new 0 0 432 640" xml:space="preserve">
<path fill="#FEFDFD" opacity="1.000000" stroke="none" 
	d="
M1.000000,253.000000 
	C1.000000,168.686218 1.000000,84.872429 1.000000,1.029322 
	C144.946869,1.029322 288.893768,1.029322 432.920319,1.029322 
	C432.920319,214.230438 432.920319,427.460938 432.920319,640.845703 
	C289.000122,640.845703 145.000076,640.845703 1.000000,640.845703 
	C1.000000,511.772949 1.000000,382.636475 1.000000,253.000000 
M233.561432,507.576874 
	C233.561432,507.576874 233.468094,507.596832 233.058029,507.755188 
	C232.798279,507.927185 232.639450,508.166229 232.545578,508.566162 
	C232.545578,508.566162 232.448807,508.593109 232.061981,508.722046 
	C231.816711,508.872925 231.660690,509.088379 231.459335,509.480286 
	C231.459335,509.480286 231.342957,509.610992 231.016098,509.718781 
	C230.808350,509.845764 230.676392,510.027710 230.357697,510.394440 
	C230.357697,510.394440 230.218964,510.652435 230.006454,510.760040 
	C230.006454,510.760040 229.698242,511.117493 229.392883,511.230774 
	C229.392883,511.230774 229.209854,511.500183 228.680847,511.779907 
	C227.690247,512.782959 226.699646,513.786011 225.827393,514.836182 
	C225.827393,514.836182 225.772766,514.721130 225.264511,514.872681 
	C225.068802,515.153809 224.873093,515.434875 224.917191,515.901062 
	C224.917191,515.901062 224.710434,515.679688 224.214569,515.829956 
	C224.025299,516.106995 223.836029,516.383972 224.017120,516.950073 
	C224.017120,516.950073 223.653870,516.649902 223.177322,516.791931 
	C222.866104,516.966064 222.678314,517.228455 222.778290,517.820374 
	C222.778290,517.820374 222.568588,517.617371 222.139008,517.738892 
	C221.861496,517.889282 221.678619,518.116028 221.504745,518.520752 
	C221.504745,518.520752 221.397049,518.598694 221.047424,518.711731 
	C220.825104,518.844727 220.680618,519.036438 220.370239,519.409790 
	C220.370239,519.409790 220.231079,519.644653 220.026184,519.748413 
	C220.026184,519.748413 219.719299,520.084778 219.376740,520.196411 
	C219.376740,520.196411 219.178314,520.497131 218.659775,520.739685 
	C218.011841,521.424622 217.363907,522.109619 216.827744,522.835144 
	C216.827744,522.835144 216.783325,522.724854 216.218048,522.926880 
	C215.697479,523.517273 215.176910,524.107666 214.890625,524.873474 
	C214.890625,524.873474 214.693604,524.657043 214.139160,524.842773 
	C213.615067,525.404846 213.090988,525.966919 212.582733,526.618286 
	C212.582733,526.618286 212.494583,526.596802 212.090530,526.719971 
	C211.831482,526.869141 211.664810,527.088440 211.542770,527.478760 
	C211.542770,527.478760 211.433945,527.503052 210.933945,527.737122 
	C210.565521,528.135742 210.197098,528.534302 209.394867,529.032471 
	C209.113708,529.186096 208.946121,529.420837 208.287781,529.961426 
	C207.416214,530.888184 206.544647,531.814880 205.833145,532.842651 
	C205.833145,532.842651 205.725739,532.686768 205.226501,532.843750 
	C205.038269,533.125793 204.850037,533.407837 204.969040,533.933777 
	C204.969040,533.933777 204.682953,533.665344 204.201385,533.808044 
	C204.009293,534.071106 203.817200,534.334167 203.830582,534.901978 
	C203.830582,534.901978 203.588638,534.625305 203.164124,534.717834 
	C202.884491,534.847900 202.696518,535.059448 202.530350,535.450012 
	C202.530350,535.450012 202.413467,535.476990 201.887268,535.636047 
	C201.504196,535.996704 201.121124,536.357361 200.971390,536.933899 
	C200.971390,536.933899 200.764236,536.692749 200.052841,536.885193 
	C199.340485,537.030945 198.628128,537.176697 197.843536,537.096191 
	C197.843536,537.096191 197.606659,537.112915 197.377304,536.581787 
	C197.180954,536.042786 196.984604,535.503784 196.831024,534.033081 
	C196.780945,521.701965 196.730865,509.370819 196.935440,496.380280 
	C196.897675,495.913269 196.859924,495.446259 197.021835,494.138947 
	C197.394745,488.590363 196.621323,482.723633 200.998047,478.226837 
	C200.998047,478.226837 201.375717,478.428467 201.940247,478.319916 
	C202.387802,477.992218 202.835373,477.664490 203.064056,477.128815 
	C203.064056,477.128815 203.244934,477.370575 203.967804,477.281769 
	C205.503494,476.594879 207.039185,475.907990 209.153854,474.803345 
	C209.827972,474.213806 210.502090,473.624298 212.217773,472.123932 
	C208.640228,472.123932 206.295059,472.123932 203.024857,471.995148 
	C191.734634,471.979431 180.444397,471.963715 168.526520,471.651276 
	C167.391022,471.660217 166.255508,471.669159 164.467682,471.398376 
	C163.998184,471.387177 163.528687,471.375977 162.209793,471.051849 
	C160.884140,470.972076 159.462326,470.555145 158.257446,470.898773 
	C156.789566,471.317444 155.504181,472.375916 154.139847,473.157623 
	C155.390488,474.336761 156.477585,476.264252 157.917130,476.578857 
	C171.686874,479.587830 174.153015,482.253662 174.979004,496.949707 
	C174.968033,521.360168 175.005173,545.770813 174.907913,570.180969 
	C174.886917,575.448364 174.381729,580.713745 173.917145,586.701843 
	C172.768036,592.544006 169.366394,596.068848 163.469513,597.373535 
	C162.424225,597.604858 161.675995,599.178833 160.790604,600.132812 
	C161.935349,600.830444 163.093445,602.135254 164.222305,602.110352 
	C167.460480,602.039124 170.684097,601.116577 173.918274,601.088623 
	C184.380173,600.998230 194.844223,601.164368 205.307510,601.219788 
	C208.917816,601.238892 212.528320,601.222778 216.138733,601.222778 
	C216.263901,600.588562 216.389084,599.954285 216.514267,599.320068 
	C215.080841,598.514893 213.731003,597.266052 212.200241,596.977661 
	C203.235809,595.289001 199.580872,592.187195 198.262878,583.304504 
	C197.315308,576.918335 197.606812,570.356384 196.837753,563.933655 
	C195.672211,554.199951 199.289413,546.986389 206.884018,541.035522 
	C210.262466,538.388245 212.109161,538.469055 214.418686,541.938110 
	C218.747330,548.440125 223.045090,554.988281 227.801315,561.174622 
	C237.613602,573.937195 247.718750,586.474548 257.996765,599.672302 
	C258.551758,599.967896 259.106750,600.263489 259.725250,600.408142 
	C259.725250,600.408142 259.585083,600.492981 260.033936,601.027344 
	C262.593445,601.414612 265.151581,602.119141 267.712708,602.130310 
	C275.786560,602.165405 283.861481,601.940552 292.679474,602.056335 
	C295.317810,601.726196 297.956146,601.396057 300.594482,601.065918 
	C300.636658,600.409424 300.678802,599.752991 300.720978,599.096497 
	C298.945404,598.173279 297.152649,597.281616 295.397369,596.321350 
	C288.614319,592.610474 280.069214,590.384644 275.391632,584.877991 
	C259.707336,566.413757 245.394226,546.783813 230.583862,527.578857 
	C227.994202,524.220764 228.629303,521.050781 231.579712,518.269653 
	C236.541656,513.592285 241.431503,508.826233 246.582779,504.364319 
	C259.549103,493.133209 270.698486,479.258209 288.631409,475.105957 
	C289.477692,474.909973 290.772308,473.302521 290.596832,472.761292 
	C290.264374,471.735748 289.143707,470.558228 288.116486,470.265839 
	C286.750946,469.877106 285.148438,470.168182 283.670746,470.351990 
	C276.672729,471.222626 269.682526,472.156097 262.153931,472.686646 
	C255.882248,471.816620 249.630249,470.689819 243.328918,470.206207 
	C240.896500,470.019531 239.223724,471.686951 241.518890,474.524078 
	C241.518890,474.524078 241.685455,474.600220 242.250671,475.035156 
	C246.433334,475.043365 250.171570,476.052521 252.688736,480.325317 
	C252.720444,481.378937 252.752151,482.432587 252.246750,483.955383 
	C251.358612,485.850342 250.470490,487.745270 249.909592,490.032440 
	C249.796036,489.904907 249.682480,489.777344 249.061722,489.964294 
	C248.543747,490.801208 248.025757,491.638153 247.501556,492.576599 
	C247.501556,492.576599 247.406906,492.613800 247.010437,492.852051 
	C246.780609,493.081818 246.658493,493.359039 246.869522,493.879120 
	C246.869522,493.879120 246.684830,493.644806 246.121567,493.911743 
	C245.240829,495.021027 244.360092,496.130280 243.335266,497.390228 
	C243.335266,497.390228 243.212540,497.558746 242.775406,497.838074 
	C242.360504,498.380737 241.945602,498.923370 241.512222,499.567200 
	C241.512222,499.567200 241.415634,499.602600 241.017151,499.786926 
	C240.769211,499.975342 240.627304,500.224213 240.599030,500.618011 
	C240.599030,500.618011 240.515045,500.606384 240.078278,500.781525 
	C239.806000,500.975800 239.648666,501.238800 239.729111,501.753876 
	C239.729111,501.753876 239.554504,501.618958 239.102676,501.792358 
	C238.819260,501.989502 238.656754,502.259399 238.886520,502.938843 
	C238.886520,502.938843 238.587860,502.626007 238.125931,502.791107 
	C237.835678,502.986084 237.666885,503.256805 237.875977,503.924438 
	C237.875977,503.924438 237.589996,503.629242 237.128784,503.792419 
	C236.835403,503.982727 236.664291,504.251007 236.862579,504.917175 
	C236.862579,504.917175 236.584091,504.624084 236.129044,504.781464 
	C235.841019,504.966644 235.668274,505.227997 235.686111,505.707733 
	C235.686111,505.707733 235.551102,505.620148 235.105743,505.785645 
	C234.822617,505.970978 234.654282,506.230713 234.752365,506.770416 
	C234.752365,506.770416 234.553070,506.610657 234.119919,506.761414 
	C233.845200,506.931091 233.667603,507.172272 233.561432,507.576874 
M106.789635,492.213470 
	C106.789635,492.213470 106.668770,492.260376 106.836929,492.769745 
	C107.124634,492.966187 107.412338,493.162659 107.806992,493.184265 
	C107.806992,493.184265 107.643127,493.307373 107.800117,493.803741 
	C108.073868,494.002075 108.347610,494.200439 108.841469,493.966339 
	C108.841469,493.966339 108.601425,494.389374 108.725769,494.833557 
	C108.871071,495.123535 109.096062,495.324158 109.495941,495.474365 
	C109.495941,495.474365 109.479218,495.575897 109.729286,496.152039 
	C110.787102,497.479065 111.844925,498.806091 112.955521,500.058472 
	C112.955521,500.058472 112.864166,500.061768 112.963799,500.682648 
	C113.608192,501.499786 114.252594,502.316895 114.959938,503.060272 
	C114.959938,503.060272 114.863243,503.067505 114.963966,503.712646 
	C115.793724,504.937408 116.623489,506.162140 117.643715,507.299500 
	C117.643715,507.299500 117.498161,507.450226 117.619431,508.005585 
	C117.945732,508.446838 118.272026,508.888092 118.847595,509.008057 
	C118.847595,509.008057 118.568680,509.303955 118.721924,510.030823 
	C119.418770,511.699646 119.950439,513.466553 120.864784,515.006226 
	C121.594490,516.235046 122.790451,517.186951 123.779472,518.261719 
	C124.480911,516.779907 125.908501,515.218750 125.756859,513.830078 
	C125.133224,508.118896 124.029526,502.460175 123.338432,495.897675 
	C123.287788,490.566315 123.378998,485.227295 123.090317,479.908844 
	C123.014786,478.517456 121.758690,477.190094 121.044800,475.833344 
	C119.938667,476.645569 118.509300,477.240753 117.789749,478.312500 
	C115.964874,481.030670 113.847855,481.700684 111.012657,480.076538 
	C109.424973,479.166992 107.809425,478.301208 106.261536,477.328003 
	C97.464745,471.797302 87.501549,470.090179 77.477585,468.974243 
	C73.632797,468.546204 69.632126,469.648590 65.692986,469.911041 
	C57.132908,470.481384 48.917950,472.241150 41.431011,476.638641 
	C22.971025,487.481232 13.020852,503.770599 8.644573,524.601501 
	C5.814819,538.071045 6.137490,551.059021 10.480445,563.664490 
	C18.763714,587.706848 36.305103,601.188416 61.462559,603.876953 
	C87.927528,606.705200 109.001945,596.907654 124.117226,574.794312 
	C124.675407,573.977661 125.313095,573.062561 125.426865,572.133667 
	C125.568512,570.977173 125.203575,569.758545 125.057388,568.566772 
	C123.943901,568.837097 122.529572,568.770264 121.775352,569.443237 
	C119.796242,571.209045 118.199173,573.395203 116.283722,575.241516 
	C102.894379,588.147583 87.111252,595.156067 68.592476,590.544678 
	C49.993923,585.913452 39.492050,572.006226 33.125473,554.624756 
	C32.178886,552.040466 31.115353,549.498962 30.135540,546.231934 
	C29.715408,536.508606 29.295277,526.785278 29.164242,516.432861 
	C29.495247,515.881897 30.051483,515.358887 30.123688,514.775879 
	C31.328903,505.044312 35.715923,496.729034 41.383118,488.936249 
	C46.361469,482.090637 53.505497,477.300415 61.090748,475.628845 
	C68.216125,474.058594 76.198120,476.375488 84.197739,477.403076 
	C86.018143,478.096558 87.838539,478.790070 89.970215,479.131744 
	C89.970215,479.131744 89.660667,479.475281 90.016678,479.923065 
	C90.552856,480.113892 91.089027,480.304749 92.019882,480.053986 
	C91.887283,480.198944 91.754684,480.343903 92.033859,480.979004 
	C93.532692,481.828583 95.031525,482.678162 96.608017,483.161865 
	C96.608017,483.161865 96.546371,483.521912 96.906342,484.030273 
	C98.076035,484.867920 99.245735,485.705566 100.529732,486.552765 
	C100.529732,486.552765 100.587105,486.652100 100.820808,487.033081 
	C101.033806,487.264191 101.296890,487.392853 102.006828,487.035339 
	C101.871429,487.159668 101.736038,487.283966 101.805847,487.879425 
	C102.097214,488.046265 102.388588,488.213104 102.841141,488.166412 
	C102.841141,488.166412 102.633095,488.334625 102.832558,488.828369 
	C103.135216,488.999573 103.437881,489.170776 103.782700,489.216187 
	C103.782700,489.216187 103.660240,489.267212 103.887299,489.830841 
	C104.510437,490.332245 105.133575,490.833649 105.802902,491.209747 
	C105.802902,491.209747 105.675896,491.251007 105.850937,491.765259 
	C106.149071,491.955292 106.447197,492.145294 106.789635,492.213470 
M338.670990,582.146912 
	C338.554779,582.418701 338.614990,582.643066 338.553314,583.498718 
	C338.508972,583.989014 338.464661,584.479309 338.027435,585.642273 
	C337.164398,591.396851 334.211121,595.387634 328.597717,597.441101 
	C327.543884,597.826599 326.932526,599.421814 326.117004,600.458862 
	C327.329529,601.081482 328.554474,602.243225 329.752045,602.215576 
	C332.327026,602.156372 334.894531,601.084351 337.453491,601.126892 
	C358.562653,601.477844 379.667389,602.205200 400.777130,602.382507 
	C417.372467,602.521973 431.009491,584.401489 425.984894,568.299683 
	C424.510742,569.760437 423.079956,570.796387 422.139069,572.168274 
	C409.203156,591.030029 390.050446,594.296631 369.246338,593.183960 
	C364.269653,592.917786 361.782288,589.868896 361.364349,584.887390 
	C361.198181,582.906921 360.950378,580.933228 360.820343,578.028503 
	C360.768921,547.369629 360.717529,516.710754 360.984589,485.342194 
	C361.667542,479.466278 364.877258,476.125977 370.782471,475.205048 
	C372.152557,474.991364 373.393616,473.950714 374.694061,473.290588 
	C374.538971,472.774811 374.383881,472.259033 374.228790,471.743256 
	C370.953339,471.404297 367.678345,470.811005 364.402222,470.804871 
	C361.667572,470.799744 358.931641,471.482452 355.732910,471.137634 
	C348.157043,471.449158 340.581207,471.760681 332.255920,471.919037 
	C330.264435,471.761719 328.275146,471.516754 326.281006,471.467255 
	C323.189056,471.390533 320.093811,471.447052 317.000000,471.447052 
	C316.816528,472.081726 316.633057,472.716370 316.449585,473.351044 
	C318.106567,474.398132 319.698212,476.216095 321.431519,476.363037 
	C330.431732,477.126251 336.760254,480.917297 338.806427,491.098907 
	C338.847229,521.357178 338.888031,551.615479 338.670990,582.146912 
M86.941666,101.861206 
	C87.930008,102.708244 88.918350,103.555275 90.482681,105.102417 
	C92.300758,115.044090 88.784447,123.267830 82.161499,130.397293 
	C73.780334,139.419434 64.979698,148.072510 56.934231,157.381088 
	C44.851715,171.360519 38.095821,187.165512 41.437775,206.292114 
	C44.973148,226.525696 55.164024,242.126129 72.666267,252.754379 
	C80.716461,257.642853 89.160034,261.883514 98.189499,266.837250 
	C94.914154,267.974854 91.971748,268.472046 89.648369,269.945404 
	C87.117126,271.550537 84.173073,273.734833 83.324883,276.300140 
	C82.820343,277.826111 85.908989,280.650360 87.576233,282.735779 
	C88.362274,283.718964 89.604942,284.337067 91.147728,285.504120 
	C89.389992,287.010132 88.068108,288.458435 86.464706,289.452698 
	C82.794739,291.728455 78.803757,293.525116 75.303513,296.021606 
	C73.162346,297.548798 71.688950,300.012207 69.915642,302.055145 
	C72.092834,303.924713 74.235649,305.837311 76.476585,307.627075 
	C76.918297,307.979828 77.738152,307.859100 78.778282,308.531219 
	C85.841789,309.982391 92.905296,311.433563 100.863365,313.048065 
	C112.162178,313.048065 123.460983,313.048065 134.759796,313.048065 
	C133.879044,311.464569 132.590820,310.798553 131.303452,310.130920 
	C123.159706,305.907501 120.645973,301.676575 127.874466,294.480377 
	C132.251587,290.122772 132.188477,289.614502 126.978111,285.536835 
	C124.239853,283.393860 123.747063,281.480438 126.701073,279.232819 
	C127.628647,278.527069 128.527664,277.782074 129.417511,277.028748 
	C133.840179,273.284424 133.863403,272.318634 129.385284,268.691406 
	C120.513916,261.505737 112.793869,253.318161 106.861290,243.494598 
	C99.150314,230.726303 95.740364,216.584930 98.632721,202.284348 
	C103.192383,179.740158 116.268867,162.453979 136.218323,150.592682 
	C141.309021,147.565903 146.231384,144.255981 151.209000,141.090179 
	C150.365768,138.473007 149.743378,136.235153 148.931046,134.068512 
	C142.493668,116.898521 133.231491,102.472916 113.703522,98.132263 
	C108.807243,97.043922 103.921410,95.268318 98.994255,95.132416 
	C93.662750,94.985374 88.288528,96.387238 82.302818,96.899536 
	C77.922493,98.246307 73.201462,98.953629 69.230797,101.069267 
	C60.189034,105.886879 58.386917,113.171249 62.743168,119.865555 
	C60.203785,114.249077 63.279152,109.284195 68.171661,104.693733 
	C73.711784,99.495621 79.977661,99.181976 86.791222,101.292236 
	C86.791222,101.292236 86.638100,101.364838 86.941666,101.861206 
M111.253593,199.298782 
	C109.563347,209.484253 109.229195,219.598938 112.766464,230.250397 
	C115.845161,241.469040 120.812759,251.483337 129.676971,259.471588 
	C135.654846,264.858734 142.975311,270.264069 136.306000,280.126282 
	C135.818375,280.847351 137.686920,283.713531 139.029800,284.976746 
	C140.598007,286.451904 142.792313,287.261536 145.554352,288.839447 
	C141.627670,292.283905 138.325394,295.005188 135.248474,297.961029 
	C133.909470,299.247375 131.808563,301.592712 132.208572,302.441345 
	C132.977859,304.073364 135.136520,305.685516 136.975983,306.067230 
	C144.607941,307.651093 152.335800,308.772797 160.678711,310.557281 
	C168.984909,310.712311 177.294418,310.781616 185.594208,311.102356 
	C187.064941,311.159210 188.495178,312.263336 189.182678,312.863770 
	C185.541016,313.325958 181.867661,313.625977 178.273056,314.328857 
	C176.800934,314.616699 175.089752,315.448792 174.182312,316.587280 
	C163.872314,329.521820 164.484085,344.992157 175.583923,357.447235 
	C181.411285,363.986145 185.875031,371.276398 188.229858,379.835876 
	C191.651321,392.272400 188.177887,402.247284 177.259155,406.635742 
	C174.975830,405.315857 172.746262,404.027069 169.831116,402.341949 
	C172.060791,409.209564 175.666382,413.712372 181.680984,414.813354 
	C192.130447,416.726105 201.808777,415.277466 209.414841,406.599304 
	C221.850418,392.410828 229.358261,375.711823 235.082047,358.005951 
	C235.549942,356.558624 236.840057,355.062317 238.156784,354.256775 
	C245.063522,350.031464 252.477356,346.537384 258.992767,341.796631 
	C265.997650,336.699768 272.202362,330.503204 278.866974,324.689850 
	C278.866974,326.320190 279.278015,327.955292 278.803497,329.270996 
	C273.960571,342.699493 277.489044,354.414307 286.034363,365.059845 
	C290.094879,370.118317 294.453705,374.936859 298.657928,379.880615 
	C306.078125,388.606079 305.584473,397.429443 296.767395,404.737427 
	C292.991669,407.866943 288.750092,410.876404 284.205780,412.506256 
	C280.071014,413.989258 275.164551,414.081299 270.664459,411.106842 
	C272.561920,409.598938 274.237061,408.509308 275.617065,407.125397 
	C279.628601,403.102478 278.923859,398.339966 273.718719,396.250671 
	C270.535919,394.973145 267.003754,394.370850 263.569275,393.959351 
	C257.773773,393.264984 254.600388,395.935883 253.847290,401.628326 
	C252.764206,409.815186 256.774139,416.367279 264.361237,420.197510 
	C271.835632,423.970825 279.706360,422.584961 286.596985,420.528900 
	C307.198547,414.381775 324.688660,402.957001 336.788055,384.720673 
	C347.936859,367.917023 346.893402,349.212280 333.337189,334.176788 
	C326.509033,326.603546 317.935791,320.593140 310.075348,313.966553 
	C307.060364,311.424805 303.082855,309.591095 304.147095,304.552490 
	C305.192474,299.603210 308.689697,297.473267 313.327698,296.690063 
	C314.477356,296.495941 315.632721,296.314331 316.764923,296.041595 
	C328.053253,293.322235 343.624969,283.603241 346.062927,265.521179 
	C346.620056,261.389130 347.291565,257.040100 343.837494,253.510513 
	C336.401367,245.911743 323.237793,248.524490 319.503021,258.475403 
	C319.004822,259.802765 319.434479,261.478333 319.434479,262.992676 
	C319.957611,263.118469 320.480713,263.244263 321.003845,263.370026 
	C321.239594,262.921783 321.607513,262.496674 321.690552,262.021729 
	C322.518616,257.285522 325.279877,255.961655 329.584869,257.626434 
	C333.548157,259.159088 335.257538,263.005432 332.827484,267.006104 
	C330.780060,270.376862 327.921783,274.227020 324.508057,275.613098 
	C314.410187,279.713104 304.570618,283.771027 297.759399,293.439880 
	C302.460388,267.658783 307.799164,242.240417 313.781250,216.974365 
	C315.083160,211.475632 318.144470,206.154068 321.360321,201.404160 
	C326.134491,194.352646 336.000183,192.242340 344.769684,195.474442 
	C352.432251,198.298553 356.763062,204.966583 355.561371,214.165253 
	C354.901794,219.214172 353.007355,224.358948 350.532135,228.830841 
	C348.606110,232.310532 344.921387,234.816772 341.817444,237.958984 
	C338.260834,234.163910 335.637695,231.364883 332.501801,228.018707 
	C332.286774,230.036240 331.732361,231.435638 332.087677,232.543182 
	C333.910889,238.226379 338.151276,241.614182 343.637726,243.319000 
	C349.089905,245.013184 353.766388,242.984238 357.836395,239.354385 
	C358.676117,238.605484 359.139343,237.430206 359.987549,236.695633 
	C368.991699,228.897522 370.723999,218.645096 368.631134,207.831390 
	C366.569214,197.177612 359.348633,190.296875 349.119141,186.996948 
	C338.874298,183.692047 328.447906,184.253311 317.571564,187.136475 
	C318.510468,185.113968 319.295990,183.677643 319.863098,182.159744 
	C324.220673,170.496384 329.161377,159.003265 332.703491,147.095139 
	C336.979034,132.721359 337.300537,118.006958 333.241150,103.324112 
	C330.382843,92.985710 328.974091,82.124039 325.072235,72.223488 
	C318.077728,54.475742 304.605530,43.213955 285.605499,39.940376 
	C277.682373,38.575275 269.369812,39.640537 261.323395,38.773888 
	C252.869171,37.863308 245.481400,40.397114 238.888077,44.894711 
	C234.915436,47.604637 231.909164,51.828358 228.807892,55.647324 
	C228.072556,56.552849 228.698914,58.564159 228.698914,60.066826 
	C237.072739,49.190678 247.278793,45.010460 259.605347,46.263985 
	C271.580811,47.481792 279.552032,58.398312 274.312744,73.005486 
	C270.591858,83.379341 262.175018,89.326668 252.769775,94.163559 
	C232.944183,104.359337 212.985825,114.317825 193.424072,125.000183 
	C171.967422,136.717300 150.417465,148.447876 131.517227,164.170410 
	C120.731842,173.142456 113.539299,184.552521 111.253593,199.298782 
M93.840004,415.660706 
	C100.969261,422.797028 109.939713,422.404694 118.478378,420.388367 
	C125.144402,418.814270 132.000015,416.066559 137.545319,412.118347 
	C150.667786,402.775116 163.105392,392.462677 175.660767,382.344666 
	C176.643723,381.552521 176.939545,379.103516 176.617172,377.629639 
	C174.859634,369.594757 170.085052,363.234833 164.916504,357.049133 
	C162.169769,353.761871 159.641449,350.166351 157.705032,346.358826 
	C155.146179,341.327423 153.457550,336.034821 156.681625,330.386841 
	C159.426773,325.577789 161.774185,320.541748 164.954224,314.321716 
	C159.770096,315.773468 155.668976,316.811401 151.645721,318.093689 
	C149.526627,318.769073 147.544968,320.648346 145.498749,320.652161 
	C133.750305,320.674164 121.993446,320.481476 110.254662,319.994690 
	C101.510361,319.632050 93.407318,320.248871 87.053062,327.465973 
	C83.238831,331.798126 81.820190,335.704437 84.985291,340.494263 
	C88.154877,345.290863 92.222626,349.539886 96.190338,353.752319 
	C101.943443,359.860138 108.725746,365.148346 113.696457,371.810272 
	C122.494530,383.601807 118.873695,399.086060 106.912170,404.745636 
	C101.131226,407.480927 97.044273,406.066681 94.214180,400.425079 
	C93.742401,399.484650 92.994621,398.682678 92.303131,397.717255 
	C87.515251,404.144104 87.853027,408.736328 93.840004,415.660706 
z"/>
<path fill="#9F2427" opacity="1.000000" stroke="none" 
	d="
M160.028458,310.064148 
	C152.335800,308.772797 144.607941,307.651093 136.975983,306.067230 
	C135.136520,305.685516 132.977859,304.073364 132.208572,302.441345 
	C131.808563,301.592712 133.909470,299.247375 135.248474,297.961029 
	C138.325394,295.005188 141.627670,292.283905 145.554352,288.839447 
	C142.792313,287.261536 140.598007,286.451904 139.029800,284.976746 
	C137.686920,283.713531 135.818375,280.847351 136.306000,280.126282 
	C142.975311,270.264069 135.654846,264.858734 129.676971,259.471588 
	C120.812759,251.483337 115.845161,241.469040 112.852020,229.408020 
	C112.606255,218.679504 112.274933,208.793365 111.943604,198.907242 
	C113.539299,184.552521 120.731842,173.142456 131.517227,164.170410 
	C150.417465,148.447876 171.967422,136.717300 193.424072,125.000183 
	C212.985825,114.317825 232.944183,104.359337 252.769775,94.163559 
	C262.175018,89.326668 270.591858,83.379341 274.312744,73.005486 
	C279.552032,58.398312 271.580811,47.481792 259.605347,46.263985 
	C247.278793,45.010460 237.072739,49.190678 228.698914,60.066826 
	C228.698914,58.564159 228.072556,56.552849 228.807892,55.647324 
	C231.909164,51.828358 234.915436,47.604637 238.888077,44.894711 
	C245.481400,40.397114 252.869171,37.863308 261.323395,38.773888 
	C269.369812,39.640537 277.682373,38.575275 285.605499,39.940376 
	C304.605530,43.213955 318.077728,54.475742 325.072235,72.223488 
	C328.974091,82.124039 330.382843,92.985710 333.241150,103.324112 
	C337.300537,118.006958 336.979034,132.721359 332.703491,147.095139 
	C329.161377,159.003265 324.220673,170.496384 319.863098,182.159744 
	C319.295990,183.677643 318.510468,185.113968 317.571564,187.136475 
	C328.447906,184.253311 338.874298,183.692047 349.119141,186.996948 
	C359.348633,190.296875 366.569214,197.177612 368.631134,207.831390 
	C370.723999,218.645096 368.991699,228.897522 359.987549,236.695633 
	C359.139343,237.430206 358.676117,238.605484 357.836395,239.354385 
	C353.766388,242.984238 349.089905,245.013184 343.637726,243.319000 
	C338.151276,241.614182 333.910889,238.226379 332.087677,232.543182 
	C331.732361,231.435638 332.286774,230.036240 332.501801,228.018707 
	C335.637695,231.364883 338.260834,234.163910 341.817444,237.958984 
	C344.921387,234.816772 348.606110,232.310532 350.532135,228.830841 
	C353.007355,224.358948 354.901794,219.214172 355.561371,214.165253 
	C356.763062,204.966583 352.432251,198.298553 344.769684,195.474442 
	C336.000183,192.242340 326.134491,194.352646 321.360321,201.404160 
	C318.144470,206.154068 315.083160,211.475632 313.781250,216.974365 
	C307.799164,242.240417 302.460388,267.658783 297.759399,293.439880 
	C304.570618,283.771027 314.410187,279.713104 324.508057,275.613098 
	C327.921783,274.227020 330.780060,270.376862 332.827484,267.006104 
	C335.257538,263.005432 333.548157,259.159088 329.584869,257.626434 
	C325.279877,255.961655 322.518616,257.285522 321.690552,262.021729 
	C321.607513,262.496674 321.239594,262.921783 321.003845,263.370026 
	C320.480713,263.244263 319.957611,263.118469 319.434479,262.992676 
	C319.434479,261.478333 319.004822,259.802765 319.503021,258.475403 
	C323.237793,248.524490 336.401367,245.911743 343.837494,253.510513 
	C347.291565,257.040100 346.620056,261.389130 346.062927,265.521179 
	C343.624969,283.603241 328.053253,293.322235 316.764923,296.041595 
	C315.632721,296.314331 314.477356,296.495941 313.327698,296.690063 
	C308.689697,297.473267 305.192474,299.603210 304.147095,304.552490 
	C303.082855,309.591095 307.060364,311.424805 310.075348,313.966553 
	C317.935791,320.593140 326.509033,326.603546 333.337189,334.176788 
	C346.893402,349.212280 347.936859,367.917023 336.788055,384.720673 
	C324.688660,402.957001 307.198547,414.381775 286.596985,420.528900 
	C279.706360,422.584961 271.835632,423.970825 264.361237,420.197510 
	C256.774139,416.367279 252.764206,409.815186 253.847290,401.628326 
	C254.600388,395.935883 257.773773,393.264984 263.569275,393.959351 
	C267.003754,394.370850 270.535919,394.973145 273.718719,396.250671 
	C278.923859,398.339966 279.628601,403.102478 275.617065,407.125397 
	C274.237061,408.509308 272.561920,409.598938 270.664459,411.106842 
	C275.164551,414.081299 280.071014,413.989258 284.205780,412.506256 
	C288.750092,410.876404 292.991669,407.866943 296.767395,404.737427 
	C305.584473,397.429443 306.078125,388.606079 298.657928,379.880615 
	C294.453705,374.936859 290.094879,370.118317 286.034363,365.059845 
	C277.489044,354.414307 273.960571,342.699493 278.803497,329.270996 
	C279.278015,327.955292 278.866974,326.320190 278.866974,324.689850 
	C272.202362,330.503204 265.997650,336.699768 258.992767,341.796631 
	C252.477356,346.537384 245.063522,350.031464 238.156784,354.256775 
	C236.840057,355.062317 235.549942,356.558624 235.082047,358.005951 
	C229.358261,375.711823 221.850418,392.410828 209.414841,406.599304 
	C201.808777,415.277466 192.130447,416.726105 181.680984,414.813354 
	C175.666382,413.712372 172.060791,409.209564 169.831116,402.341949 
	C172.746262,404.027069 174.975830,405.315857 177.259155,406.635742 
	C188.177887,402.247284 191.651321,392.272400 188.229858,379.835876 
	C185.875031,371.276398 181.411285,363.986145 175.583923,357.447235 
	C164.484085,344.992157 163.872314,329.521820 174.182312,316.587280 
	C175.089752,315.448792 176.800934,314.616699 178.273056,314.328857 
	C181.867661,313.625977 185.541016,313.325958 189.931183,312.864075 
	C192.913116,311.950287 195.146530,311.036194 197.379944,310.122101 
	C197.317520,309.903473 197.255096,309.684845 197.192673,309.466217 
	C195.786789,309.563232 194.380920,309.660248 192.782242,309.550110 
	C192.046051,309.209839 191.502670,309.076752 190.663239,308.658325 
	C184.949570,308.249084 179.529953,307.978485 174.115005,308.052063 
	C170.418823,308.102295 166.729156,308.633087 162.758606,308.975220 
	C162.000031,309.245697 161.519424,309.490021 160.778717,309.793762 
	C160.355225,309.923492 160.191833,309.993805 160.028458,310.064148 
M298.742004,149.526703 
	C298.014893,149.162170 297.287811,148.797638 296.722778,148.382278 
	C296.722778,148.382278 296.635986,148.528244 296.562897,147.756363 
	C290.572235,143.789124 283.920380,144.803406 277.411102,145.452927 
	C275.220856,145.671478 273.139893,146.985458 270.270660,148.073822 
	C266.425568,149.127823 262.403839,149.766769 258.768555,151.313766 
	C247.949844,155.917648 236.895676,160.187729 226.678589,165.916931 
	C218.412430,170.552155 219.081329,176.950241 227.164459,182.010223 
	C228.710220,182.977844 230.333878,183.869278 232.018539,184.559174 
	C245.893387,190.241196 252.377411,201.098053 251.913528,215.517334 
	C251.623489,224.532730 249.106812,233.466507 247.803299,242.467911 
	C247.550507,244.213440 248.287628,246.102325 248.568130,247.925079 
	C250.357208,247.604614 252.448196,247.756409 253.863647,246.851517 
	C255.919220,245.537415 257.781921,243.672775 259.218048,241.676773 
	C275.044556,219.680374 290.949097,197.723755 301.281067,172.383957 
	C304.050354,165.592133 303.874603,158.920822 300.882202,151.559891 
	C300.201202,151.075180 299.520203,150.590469 298.925262,150.075943 
	C298.925262,150.075943 298.923401,150.167007 298.742004,149.526703 
M257.652344,261.121948 
	C267.066833,266.877899 269.676239,273.266937 266.733215,283.356201 
	C263.486816,294.485382 255.389847,301.568573 246.167877,301.284271 
	C244.848312,301.243591 243.466537,301.142914 242.235016,300.717987 
	C238.636520,299.476410 238.285782,296.198914 238.923203,293.365082 
	C239.178726,292.229065 242.144119,291.014069 243.832611,291.073334 
	C245.698578,291.138824 247.514740,292.623627 249.700333,293.654236 
	C254.171829,290.720306 257.590210,285.805573 258.188507,280.999390 
	C258.880890,275.437897 255.982864,271.399658 250.530319,271.987427 
	C246.472275,272.424896 241.640625,273.783905 238.853210,276.485901 
	C227.757278,287.242004 222.876511,300.766785 224.228867,316.234650 
	C224.697205,321.591370 227.632950,325.562836 233.170578,327.007935 
	C238.526794,328.405609 243.371017,327.268677 248.521500,325.141418 
	C269.064240,316.656616 280.064148,300.301422 286.204102,280.085297 
	C289.905121,267.899323 292.789032,255.450150 295.647125,243.028839 
	C297.361176,235.579681 298.318115,227.956329 299.653442,220.189499 
	C293.744080,226.295227 288.611755,232.138580 282.908356,237.357956 
	C275.301147,244.319656 267.225525,250.767975 259.420013,257.516510 
	C258.413269,258.386902 257.818329,259.733673 257.652344,261.121948 
M186.239655,230.275177 
	C187.848923,232.989609 188.890503,236.417831 191.198669,238.253464 
	C194.783569,241.104462 199.204391,242.921265 203.317627,245.087646 
	C212.809128,250.086746 220.823441,256.540680 225.233505,266.705017 
	C225.647186,267.658447 226.647675,268.357300 227.336456,269.130310 
	C236.421158,263.388458 236.488800,263.406219 238.447266,255.954056 
	C239.071976,253.576920 239.136566,251.058563 239.622101,248.637848 
	C242.820190,232.693451 241.401581,217.506363 232.111404,203.685989 
	C225.931580,194.492676 217.040833,190.809723 208.716568,194.012070 
	C201.235184,196.890121 194.983261,201.517258 190.779984,208.448486 
	C186.882507,214.875473 184.796417,221.815079 186.239655,230.275177 
M157.974762,272.334167 
	C159.536514,276.161438 160.838043,280.123291 162.729156,283.780243 
	C164.857193,287.895325 170.868591,289.302673 175.007065,287.010742 
	C176.744919,286.048279 178.398788,284.933563 180.085922,283.880219 
	C189.624939,277.924652 200.088181,275.855927 210.974274,278.027130 
	C216.257431,279.080841 219.363785,277.764557 222.111465,273.164337 
	C211.290222,260.225433 198.504776,250.538528 181.659225,247.554291 
	C166.238007,244.822388 154.785645,256.562195 157.974762,272.334167 
M312.981812,363.888275 
	C311.900085,372.818237 310.818359,381.748230 309.709351,390.903473 
	C310.322540,390.825287 311.474396,391.025909 312.111847,390.544891 
	C321.196411,383.689484 326.646759,374.257507 327.826263,363.270477 
	C330.254639,340.650269 317.104584,326.222290 299.974640,314.453186 
	C296.187653,311.851349 294.046021,312.528809 293.335632,317.125092 
	C291.947052,326.109741 291.031647,335.197662 290.527649,344.276550 
	C290.263550,349.034851 294.478394,352.426880 299.214294,352.415771 
	C309.535339,352.391571 311.098480,353.601349 312.981812,363.888275 
z"/>
<path fill="#9F2326" opacity="1.000000" stroke="none" 
	d="
M82.932938,97.113548 
	C88.288528,96.387238 93.662750,94.985374 98.994255,95.132416 
	C103.921410,95.268318 108.807243,97.043922 113.703522,98.132263 
	C133.231491,102.472916 142.493668,116.898521 148.931046,134.068512 
	C149.743378,136.235153 150.365768,138.473007 151.209000,141.090179 
	C146.231384,144.255981 141.309021,147.565903 136.218323,150.592682 
	C116.268867,162.453979 103.192383,179.740158 98.632721,202.284348 
	C95.740364,216.584930 99.150314,230.726303 106.861290,243.494598 
	C112.793869,253.318161 120.513916,261.505737 129.385284,268.691406 
	C133.863403,272.318634 133.840179,273.284424 129.417511,277.028748 
	C128.527664,277.782074 127.628647,278.527069 126.701073,279.232819 
	C123.747063,281.480438 124.239853,283.393860 126.978111,285.536835 
	C132.188477,289.614502 132.251587,290.122772 127.874466,294.480377 
	C120.645973,301.676575 123.159706,305.907501 131.303452,310.130920 
	C132.590820,310.798553 133.879044,311.464569 134.759796,313.048065 
	C123.460983,313.048065 112.162178,313.048065 100.335358,312.590179 
	C92.666107,310.740448 85.524864,309.348602 78.383614,307.956757 
	C77.738152,307.859100 76.918297,307.979828 76.476585,307.627075 
	C74.235649,305.837311 72.092834,303.924713 69.915649,302.055145 
	C71.688950,300.012207 73.162346,297.548798 75.303513,296.021606 
	C78.803757,293.525116 82.794739,291.728455 86.464706,289.452698 
	C88.068108,288.458435 89.389992,287.010132 91.147728,285.504120 
	C89.604942,284.337067 88.362274,283.718964 87.576233,282.735779 
	C85.908989,280.650360 82.820343,277.826111 83.324883,276.300140 
	C84.173073,273.734833 87.117126,271.550537 89.648369,269.945404 
	C91.971748,268.472046 94.914154,267.974854 98.189499,266.837250 
	C89.160034,261.883514 80.716461,257.642853 72.666267,252.754379 
	C55.164024,242.126129 44.973148,226.525696 41.437775,206.292114 
	C38.095821,187.165512 44.851715,171.360519 56.934231,157.381088 
	C64.979698,148.072510 73.780334,139.419434 82.161499,130.397293 
	C88.784447,123.267830 92.300758,115.044090 90.212296,104.421173 
	C88.840637,102.948235 87.739372,102.156540 86.638100,101.364838 
	C86.638100,101.364838 86.791222,101.292236 86.689774,101.000839 
	C84.437897,99.913765 82.287460,99.118103 80.328590,98.393318 
	C81.009499,98.058716 81.971222,97.586136 82.932938,97.113548 
z"/>
<path fill="#9E2528" opacity="1.000000" stroke="none" 
	d="
M262.689545,473.067200 
	C269.682526,472.156097 276.672729,471.222626 283.670746,470.351990 
	C285.148438,470.168182 286.750946,469.877106 288.116486,470.265839 
	C289.143707,470.558228 290.264374,471.735748 290.596832,472.761292 
	C290.772308,473.302521 289.477692,474.909973 288.631409,475.105957 
	C270.698486,479.258209 259.549103,493.133209 246.582779,504.364319 
	C241.431503,508.826233 236.541656,513.592285 231.579712,518.269653 
	C228.629303,521.050781 227.994202,524.220764 230.583862,527.578857 
	C245.394226,546.783813 259.707336,566.413757 275.391632,584.877991 
	C280.069214,590.384644 288.614319,592.610474 295.397369,596.321350 
	C297.152649,597.281616 298.945404,598.173279 300.720978,599.096497 
	C300.678802,599.752991 300.636658,600.409424 300.594482,601.065918 
	C297.956146,601.396057 295.317810,601.726196 292.094025,601.615356 
	C289.819946,600.787354 288.129852,600.062256 286.442963,600.069763 
	C277.489899,600.109497 268.537628,600.333130 259.585083,600.492981 
	C259.585083,600.492981 259.725250,600.408142 259.664795,600.117249 
	C258.970703,599.585754 258.337067,599.345154 257.703400,599.104492 
	C247.718750,586.474548 237.613602,573.937195 227.801315,561.174622 
	C223.045090,554.988281 218.747330,548.440125 214.418686,541.938110 
	C212.109161,538.469055 210.262466,538.388245 206.884018,541.035522 
	C199.289413,546.986389 195.672211,554.199951 196.837753,563.933655 
	C197.606812,570.356384 197.315308,576.918335 198.262878,583.304504 
	C199.580872,592.187195 203.235809,595.289001 212.200241,596.977661 
	C213.731003,597.266052 215.080841,598.514893 216.514267,599.320068 
	C216.389084,599.954285 216.263901,600.588562 216.138733,601.222778 
	C212.528320,601.222778 208.917816,601.238892 205.307510,601.219788 
	C194.844223,601.164368 184.380173,600.998230 173.918274,601.088623 
	C170.684097,601.116577 167.460480,602.039124 164.222305,602.110352 
	C163.093445,602.135254 161.935349,600.830444 160.790588,600.132812 
	C161.675995,599.178833 162.424225,597.604858 163.469513,597.373535 
	C169.366394,596.068848 172.768036,592.544006 174.400574,586.253540 
	C175.256378,584.287354 175.949768,582.770325 175.953384,581.251587 
	C176.017685,554.264893 176.011063,527.277893 175.960556,500.291077 
	C175.957901,498.869873 175.430130,497.449646 175.146820,496.028961 
	C174.153015,482.253662 171.686874,479.587830 157.917130,476.578857 
	C156.477585,476.264252 155.390488,474.336761 154.139847,473.157623 
	C155.504181,472.375916 156.789566,471.317444 158.257446,470.898773 
	C159.462326,470.555145 160.884140,470.972076 162.760071,471.570496 
	C164.689362,472.389923 166.066788,472.942780 167.447662,472.951569 
	C178.208694,473.020264 188.970612,473.015472 199.731644,472.942749 
	C201.139496,472.933258 202.543900,472.409485 203.949890,472.123932 
	C206.295059,472.123932 208.640228,472.123932 212.217773,472.123932 
	C210.502090,473.624298 209.827972,474.213806 208.458893,474.952087 
	C206.257599,475.857391 204.751266,476.613983 203.244934,477.370575 
	C203.244934,477.370575 203.064056,477.128815 202.838898,477.164062 
	C202.201065,477.609009 201.788391,478.018738 201.375732,478.428467 
	C201.375717,478.428467 200.998047,478.226837 200.830963,478.307617 
	C194.613083,482.814117 195.579712,488.864746 196.822174,494.979248 
	C196.859924,495.446259 196.897675,495.913269 196.441833,496.835449 
	C195.635880,498.002686 195.055191,498.713318 195.051376,499.427063 
	C194.992920,510.385284 194.986908,521.344055 195.051163,532.302185 
	C195.056412,533.195129 195.660965,534.084534 196.027283,535.268555 
	C196.580551,536.078674 197.093597,536.595825 197.606659,537.112915 
	C197.606659,537.112915 197.843536,537.096191 197.957520,537.492493 
	C198.969086,537.490112 199.866653,537.091431 200.764236,536.692749 
	C200.764236,536.692749 200.971390,536.933899 201.191849,536.867065 
	C201.746033,536.359192 202.079758,535.918091 202.413483,535.476990 
	C202.413467,535.476990 202.530350,535.450012 202.831787,535.481384 
	C203.285019,535.216919 203.436813,534.921082 203.588623,534.625305 
	C203.588638,534.625305 203.830582,534.901978 204.012817,534.754456 
	C204.357666,534.293091 204.520309,533.979187 204.682953,533.665344 
	C204.682953,533.665344 204.969040,533.933777 205.099060,533.786377 
	C205.394623,533.321594 205.560181,533.004211 205.725739,532.686768 
	C205.725739,532.686768 205.833145,532.842651 206.090149,532.759155 
	C207.195480,531.695984 208.043777,530.716309 208.892090,529.736633 
	C208.946121,529.420837 209.113708,529.186096 209.945618,528.969910 
	C210.808899,528.439270 211.121429,527.971130 211.433960,527.503052 
	C211.433945,527.503052 211.542770,527.478760 211.838348,527.499756 
	C212.254150,527.212769 212.374359,526.904785 212.494583,526.596802 
	C212.494583,526.596802 212.582733,526.618286 212.909592,526.616943 
	C213.722168,525.962769 214.207886,525.309875 214.693604,524.657043 
	C214.693604,524.657043 214.890625,524.873474 215.100189,524.770508 
	C215.800964,524.020020 216.292145,523.372437 216.783325,522.724854 
	C216.783325,522.724854 216.827744,522.835144 217.111694,522.760254 
	C217.989883,521.955933 218.584106,521.226501 219.178314,520.497131 
	C219.178314,520.497131 219.376740,520.196411 219.736404,520.294373 
	C220.096069,520.392334 220.451874,520.071716 220.451874,520.071716 
	C220.451874,520.071716 220.231079,519.644653 220.231079,519.644653 
	C220.231079,519.644653 220.370239,519.409790 220.743439,519.442993 
	C221.210129,519.183655 221.303589,518.891174 221.397049,518.598694 
	C221.397049,518.598694 221.504745,518.520752 221.823608,518.529663 
	C222.284500,518.231506 222.426544,517.924438 222.568604,517.617371 
	C222.568588,517.617371 222.778290,517.820374 222.981812,517.709351 
	C223.341522,517.282227 223.497696,516.966064 223.653870,516.649902 
	C223.653870,516.649902 224.017120,516.950073 224.116943,516.790039 
	C224.381317,516.313293 224.545883,515.996460 224.710434,515.679688 
	C224.710434,515.679688 224.917191,515.901062 225.078796,515.777832 
	C225.417862,515.343506 225.595322,515.032288 225.772766,514.721130 
	C225.772766,514.721130 225.827393,514.836182 226.109406,514.754150 
	C227.330902,513.614746 228.270386,512.557495 229.209854,511.500183 
	C229.209854,511.500183 229.392883,511.230774 229.742615,511.319427 
	C230.092346,511.408081 230.446075,511.080017 230.446075,511.080017 
	C230.446075,511.080017 230.218964,510.652435 230.218964,510.652435 
	C230.218964,510.652435 230.357697,510.394440 230.732727,510.431702 
	C231.186157,510.182983 231.264557,509.897003 231.342957,509.610992 
	C231.342957,509.610992 231.459335,509.480286 231.793762,509.494202 
	C232.235077,509.203125 232.341934,508.898132 232.448807,508.593109 
	C232.448807,508.593109 232.545578,508.566162 232.844330,508.558289 
	C233.251419,508.232544 233.359756,507.914673 233.468094,507.596832 
	C233.468094,507.596832 233.561432,507.576874 233.856796,507.568329 
	C234.285797,507.243408 234.419434,506.927032 234.553070,506.610657 
	C234.553070,506.610657 234.752365,506.770416 234.960861,506.677124 
	C235.296600,506.262573 235.423859,505.941376 235.551102,505.620148 
	C235.551102,505.620148 235.686111,505.707733 235.932220,505.645813 
	C236.313583,505.263947 236.448837,504.944000 236.584091,504.624084 
	C236.584091,504.624084 236.862579,504.917175 237.023880,504.756287 
	C237.320114,504.273376 237.455048,503.951294 237.589996,503.629242 
	C237.589996,503.629242 237.875977,503.924438 238.032547,503.760437 
	C238.322037,503.272949 238.454941,502.949493 238.587860,502.626007 
	C238.587860,502.626007 238.886520,502.938843 239.035675,502.766602 
	C239.308044,502.269196 239.431274,501.944092 239.554504,501.618958 
	C239.554504,501.618958 239.729111,501.753876 239.951935,501.667633 
	C240.288177,501.256378 240.401627,500.931396 240.515045,500.606384 
	C240.515045,500.606384 240.599030,500.618011 240.876221,500.592590 
	C241.240829,500.245636 241.328247,499.924103 241.415649,499.602600 
	C241.415634,499.602600 241.512222,499.567200 241.862732,499.573853 
	C242.546356,498.906616 242.879456,498.232666 243.212555,497.558746 
	C243.212540,497.558746 243.335266,497.390228 243.724442,497.417450 
	C244.970688,496.178040 245.827774,494.911438 246.684845,493.644836 
	C246.684830,493.644806 246.869522,493.879120 247.035645,493.744507 
	C247.270157,493.277893 247.338531,492.945831 247.406921,492.613800 
	C247.406906,492.613800 247.501556,492.576599 247.870758,492.570312 
	C248.682938,491.592621 249.125946,490.621216 249.568939,489.649811 
	C249.682480,489.777344 249.796036,489.904907 250.122681,489.819733 
	C251.151794,487.566742 251.967819,485.526489 252.783844,483.486206 
	C252.752151,482.432587 252.720444,481.378937 252.704712,479.622681 
	C250.213364,474.488495 246.505280,473.124329 241.685455,474.600220 
	C241.685455,474.600220 241.518890,474.524078 241.672974,474.059937 
	C243.410629,473.048859 245.006729,472.005463 246.575500,472.045044 
	C251.952026,472.180817 257.318939,472.696411 262.689545,473.067200 
z"/>
<path fill="#9F2427" opacity="1.000000" stroke="none" 
	d="
M93.575211,415.404510 
	C87.853027,408.736328 87.515251,404.144104 92.303131,397.717255 
	C92.994621,398.682678 93.742401,399.484650 94.214180,400.425079 
	C97.044273,406.066681 101.131226,407.480927 106.912170,404.745636 
	C118.873695,399.086060 122.494530,383.601807 113.696457,371.810272 
	C108.725746,365.148346 101.943443,359.860138 96.190338,353.752319 
	C92.222626,349.539886 88.154877,345.290863 84.985291,340.494263 
	C81.820190,335.704437 83.238831,331.798126 87.053062,327.465973 
	C93.407318,320.248871 101.510361,319.632050 110.254662,319.994690 
	C121.993446,320.481476 133.750305,320.674164 145.498749,320.652161 
	C147.544968,320.648346 149.526627,318.769073 151.645721,318.093689 
	C155.668976,316.811401 159.770096,315.773468 164.954224,314.321716 
	C161.774185,320.541748 159.426773,325.577789 156.681625,330.386841 
	C153.457550,336.034821 155.146179,341.327423 157.705032,346.358826 
	C159.641449,350.166351 162.169769,353.761871 164.916504,357.049133 
	C170.085052,363.234833 174.859634,369.594757 176.617172,377.629639 
	C176.939545,379.103516 176.643723,381.552521 175.660767,382.344666 
	C163.105392,392.462677 150.667786,402.775116 137.545319,412.118347 
	C132.000015,416.066559 125.144402,418.814270 118.478378,420.388367 
	C109.939713,422.404694 100.969261,422.797028 93.575211,415.404510 
z"/>
<path fill="#9E2528" opacity="1.000000" stroke="none" 
	d="
M30.105923,546.937683 
	C31.115353,549.498962 32.178886,552.040466 33.125473,554.624756 
	C39.492050,572.006226 49.993923,585.913452 68.592476,590.544678 
	C87.111252,595.156067 102.894379,588.147583 116.283722,575.241516 
	C118.199173,573.395203 119.796242,571.209045 121.775352,569.443237 
	C122.529572,568.770264 123.943901,568.837097 125.057388,568.566772 
	C125.203575,569.758545 125.568512,570.977173 125.426865,572.133667 
	C125.313095,573.062561 124.675407,573.977661 124.117226,574.794312 
	C109.001945,596.907654 87.927528,606.705200 61.462559,603.876953 
	C36.305103,601.188416 18.763714,587.706848 10.480445,563.664490 
	C6.137490,551.059021 5.814819,538.071045 8.644573,524.601501 
	C13.020852,503.770599 22.971025,487.481232 41.431011,476.638641 
	C48.917950,472.241150 57.132908,470.481384 65.692986,469.911041 
	C69.632126,469.648590 73.632797,468.546204 77.477585,468.974243 
	C87.501549,470.090179 97.464745,471.797302 106.261536,477.328003 
	C107.809425,478.301208 109.424973,479.166992 111.012657,480.076538 
	C113.847855,481.700684 115.964874,481.030670 117.789749,478.312500 
	C118.509300,477.240753 119.938667,476.645569 121.044792,475.833344 
	C121.758690,477.190094 123.014786,478.517456 123.090317,479.908844 
	C123.378998,485.227295 123.287788,490.566315 123.177811,496.816040 
	C123.333038,503.852448 123.648880,509.970520 124.012039,517.005249 
	C121.773712,513.838440 120.171196,511.571198 118.568680,509.303955 
	C118.568680,509.303955 118.847595,509.008057 118.812119,508.826355 
	C118.350479,508.246490 117.924316,507.848358 117.498154,507.450226 
	C117.498161,507.450226 117.643715,507.299500 117.684410,507.004089 
	C116.771149,505.494965 115.817200,504.281219 114.863243,503.067505 
	C114.863243,503.067505 114.959938,503.060272 114.940674,502.757355 
	C114.235657,501.656891 113.549911,500.859314 112.864166,500.061768 
	C112.864166,500.061768 112.955521,500.058472 112.935211,499.730835 
	C111.769676,498.127472 110.624435,496.851685 109.479210,495.575897 
	C109.479218,495.575897 109.495941,495.474365 109.524094,495.169128 
	C109.235306,494.705719 108.918365,494.547546 108.601425,494.389374 
	C108.601425,494.389374 108.841469,493.966339 108.732132,493.886658 
	C108.296234,493.640442 107.969681,493.473907 107.643127,493.307373 
	C107.643127,493.307373 107.806992,493.184265 107.728333,492.978821 
	C107.322708,492.602386 106.995743,492.431366 106.668777,492.260376 
	C106.668770,492.260376 106.789635,492.213470 106.727737,491.983459 
	C106.335846,491.585968 106.005867,491.418488 105.675888,491.251038 
	C105.675896,491.251007 105.802902,491.209747 105.751656,490.937744 
	C105.020355,490.199585 104.340294,489.733398 103.660240,489.267212 
	C103.660240,489.267212 103.782700,489.216187 103.716621,488.988403 
	C103.311394,488.618652 102.972244,488.476654 102.633087,488.334625 
	C102.633095,488.334625 102.841141,488.166412 102.734535,487.977844 
	C102.285507,487.662262 101.943077,487.535248 101.600647,487.408234 
	C101.736038,487.283966 101.871429,487.159668 101.802834,486.935059 
	C101.261597,486.773865 100.924355,486.712982 100.587105,486.652100 
	C100.587105,486.652100 100.529732,486.552765 100.531906,486.206848 
	C99.204842,485.081299 97.875603,484.301605 96.546371,483.521912 
	C96.546371,483.521912 96.608017,483.161865 96.581009,482.984924 
	C94.910019,482.034943 93.266052,481.261902 91.622086,480.488831 
	C91.754684,480.343903 91.887283,480.198944 91.785049,479.923218 
	C90.920364,479.686737 90.290512,479.581024 89.660667,479.475281 
	C89.660667,479.475281 89.970215,479.131744 89.770683,478.950317 
	C87.648499,478.173279 85.725853,477.577667 83.803200,476.982056 
	C76.198120,476.375488 68.216125,474.058594 61.090748,475.628845 
	C53.505497,477.300415 46.361469,482.090637 41.383118,488.936249 
	C35.715923,496.729034 31.328903,505.044312 30.123688,514.775879 
	C30.051483,515.358887 29.495247,515.881897 28.743317,517.050293 
	C28.218018,523.125610 27.815519,528.599304 28.103918,534.036377 
	C28.333260,538.360046 29.407042,542.638916 30.105923,546.937683 
z"/>
<path fill="#A02729" opacity="1.000000" stroke="none" 
	d="
M356.196259,471.860535 
	C358.931641,471.482452 361.667572,470.799744 364.402222,470.804871 
	C367.678345,470.811005 370.953339,471.404297 374.228790,471.743256 
	C374.383881,472.259033 374.538971,472.774811 374.694061,473.290588 
	C373.393616,473.950714 372.152557,474.991364 370.782471,475.205048 
	C364.877258,476.125977 361.667542,479.466278 360.460510,485.822296 
	C359.627533,487.184326 359.050110,488.065765 359.048645,488.948212 
	C359.000641,517.757690 358.987244,546.567322 359.080414,575.376526 
	C359.084290,576.571655 360.162201,577.763245 360.739716,578.956482 
	C360.950378,580.933228 361.198181,582.906921 361.364349,584.887390 
	C361.782288,589.868896 364.269653,592.917786 369.246338,593.183960 
	C390.050446,594.296631 409.203156,591.030029 422.139069,572.168274 
	C423.079956,570.796387 424.510742,569.760437 425.984894,568.299683 
	C431.009491,584.401489 417.372467,602.521973 400.777130,602.382507 
	C379.667389,602.205200 358.562653,601.477844 337.453491,601.126892 
	C334.894531,601.084351 332.327026,602.156372 329.752045,602.215576 
	C328.554474,602.243225 327.329529,601.081482 326.117004,600.458862 
	C326.932526,599.421814 327.543884,597.826599 328.597717,597.441101 
	C334.211121,595.387634 337.164398,591.396851 338.492554,585.289246 
	C339.315247,584.955933 339.672882,584.975586 340.318848,584.695923 
	C340.737457,583.586487 340.980988,582.776550 340.981537,581.966431 
	C341.001190,552.224670 341.009644,522.482910 340.958466,492.741180 
	C340.956360,491.508545 340.367279,490.276886 339.889771,488.880280 
	C339.450073,489.207550 339.172272,489.699280 338.894470,490.191010 
	C336.760254,480.917297 330.431732,477.126251 321.431519,476.363037 
	C319.698212,476.216095 318.106567,474.398132 316.449585,473.351044 
	C316.633057,472.716370 316.816528,472.081726 317.000000,471.447052 
	C320.093811,471.447052 323.189056,471.390533 326.281006,471.467255 
	C328.275146,471.516754 330.264435,471.761719 332.809814,472.304443 
	C340.974548,472.413422 348.585388,472.136963 356.196259,471.860535 
z"/>
<path fill="#7F0C0F" opacity="1.000000" stroke="none" 
	d="
M360.780029,578.492493 
	C360.162201,577.763245 359.084290,576.571655 359.080414,575.376526 
	C358.987244,546.567322 359.000641,517.757690 359.048645,488.948212 
	C359.050110,488.065765 359.627533,487.184326 360.301270,486.177124 
	C360.717529,516.710754 360.768921,547.369629 360.780029,578.492493 
z"/>
<path fill="#7F282A" opacity="1.000000" stroke="none" 
	d="
M82.617874,97.006546 
	C81.971222,97.586136 81.009499,98.058716 80.328590,98.393318 
	C82.287460,99.118103 84.437897,99.913765 86.671829,101.083641 
	C79.977661,99.181976 73.711784,99.495621 68.171661,104.693733 
	C63.279152,109.284195 60.203785,114.249077 62.743168,119.865555 
	C58.386917,113.171249 60.189034,105.886879 69.230797,101.069267 
	C73.201462,98.953629 77.922493,98.246307 82.617874,97.006546 
z"/>
<path fill="#760F12" opacity="1.000000" stroke="none" 
	d="
M338.850464,490.644958 
	C339.172272,489.699280 339.450073,489.207550 339.870728,489.343384 
	C340.019257,521.645752 340.024872,553.320557 340.030487,584.995239 
	C339.672882,584.975586 339.315247,584.955933 338.688995,584.952881 
	C338.464661,584.479309 338.508972,583.989014 338.792389,583.014343 
	C339.102081,582.294861 339.067871,582.076111 338.928833,581.873779 
	C338.888031,551.615479 338.847229,521.357178 338.850464,490.644958 
z"/>
<path fill="#831F21" opacity="1.000000" stroke="none" 
	d="
M175.062912,496.489319 
	C175.430130,497.449646 175.957901,498.869873 175.960556,500.291077 
	C176.011063,527.277893 176.017685,554.264893 175.953384,581.251587 
	C175.949768,582.770325 175.256378,584.287354 174.491791,585.892639 
	C174.381729,580.713745 174.886917,575.448364 174.907913,570.180969 
	C175.005173,545.770813 174.968033,521.360168 175.062912,496.489319 
z"/>
<path fill="#840C0E" opacity="1.000000" stroke="none" 
	d="
M195.987061,534.975586 
	C195.660965,534.084534 195.056412,533.195129 195.051163,532.302185 
	C194.986908,521.344055 194.992920,510.385284 195.051376,499.427063 
	C195.055191,498.713318 195.635880,498.002686 196.314514,497.165161 
	C196.730865,509.370819 196.780945,521.701965 196.609070,534.482300 
	C196.387100,534.931519 195.987061,534.975586 195.987061,534.975586 
z"/>
<path fill="#8C3234" opacity="1.000000" stroke="none" 
	d="
M111.598602,199.103012 
	C112.274933,208.793365 112.606255,218.679504 112.884102,229.036896 
	C109.229195,219.598938 109.563347,209.484253 111.598602,199.103012 
z"/>
<path fill="#8C3234" opacity="1.000000" stroke="none" 
	d="
M118.645294,509.667389 
	C120.171196,511.571198 121.773712,513.838440 124.012039,517.005249 
	C123.648880,509.970520 123.333038,503.852448 123.059799,497.258240 
	C124.029526,502.460175 125.133224,508.118896 125.756859,513.830078 
	C125.908501,515.218750 124.480911,516.779907 123.779465,518.261719 
	C122.790451,517.186951 121.594490,516.235046 120.864784,515.006226 
	C119.950439,513.466553 119.418770,511.699646 118.645294,509.667389 
z"/>
<path fill="#79171A" opacity="1.000000" stroke="none" 
	d="
M259.809509,600.760132 
	C268.537628,600.333130 277.489899,600.109497 286.442963,600.069763 
	C288.129852,600.062256 289.819946,600.787354 291.722290,601.495361 
	C283.861481,601.940552 275.786560,602.165405 267.712708,602.130310 
	C265.151581,602.119141 262.593445,601.414612 259.809509,600.760132 
z"/>
<path fill="#913A3C" opacity="1.000000" stroke="none" 
	d="
M262.421753,472.876892 
	C257.318939,472.696411 251.952026,472.180817 246.575500,472.045044 
	C245.006729,472.005463 243.410629,473.048859 241.606018,473.997498 
	C239.223724,471.686951 240.896500,470.019531 243.328918,470.206207 
	C249.630249,470.689819 255.882248,471.816620 262.421753,472.876892 
z"/>
<path fill="#F2B4B2" opacity="1.000000" stroke="none" 
	d="
M160.353577,310.310730 
	C160.191833,309.993805 160.355225,309.923492 161.241669,309.868835 
	C172.301514,309.842102 182.638290,309.799683 192.975052,309.757263 
	C194.380920,309.660248 195.786789,309.563232 197.192673,309.466217 
	C197.255096,309.684845 197.317520,309.903473 197.379944,310.122101 
	C195.146530,311.036194 192.913116,311.950287 190.311890,312.874084 
	C188.495178,312.263336 187.064941,311.159210 185.594208,311.102356 
	C177.294418,310.781616 168.984909,310.712311 160.353577,310.310730 
z"/>
<path fill="#731214" opacity="1.000000" stroke="none" 
	d="
M203.487366,472.059540 
	C202.543900,472.409485 201.139496,472.933258 199.731644,472.942749 
	C188.970612,473.015472 178.208694,473.020264 167.447662,472.951569 
	C166.066788,472.942780 164.689362,472.389923 163.184769,471.726929 
	C163.528687,471.375977 163.998184,471.387177 165.097687,471.695007 
	C166.869843,471.977081 168.012009,471.962524 169.154175,471.947998 
	C180.444397,471.963715 191.734634,471.979431 203.487366,472.059540 
z"/>
<path fill="#7D181C" opacity="1.000000" stroke="none" 
	d="
M30.120731,546.584839 
	C29.407042,542.638916 28.333260,538.360046 28.103918,534.036377 
	C27.815519,528.599304 28.218018,523.125610 28.598766,517.364868 
	C29.295277,526.785278 29.715408,536.508606 30.120731,546.584839 
z"/>
<path fill="#831F21" opacity="1.000000" stroke="none" 
	d="
M78.580948,308.243988 
	C85.524864,309.348602 92.666107,310.740448 99.888084,312.508484 
	C92.905296,311.433563 85.841789,309.982391 78.580948,308.243988 
z"/>
<path fill="#943F40" opacity="1.000000" stroke="none" 
	d="
M355.964600,471.499084 
	C348.585388,472.136963 340.974548,472.413422 333.184509,472.381042 
	C340.581207,471.760681 348.157043,471.449158 355.964600,471.499084 
z"/>
<path fill="#913A3C" opacity="1.000000" stroke="none" 
	d="
M196.921997,494.559082 
	C195.579712,488.864746 194.613083,482.814117 201.027679,478.391968 
	C196.621323,482.723633 197.394745,488.590363 196.921997,494.559082 
z"/>
<path fill="#913A3C" opacity="1.000000" stroke="none" 
	d="
M241.968063,474.817688 
	C246.505280,473.124329 250.213364,474.488495 252.731110,479.306519 
	C250.171570,476.052521 246.433334,475.043365 241.968063,474.817688 
z"/>
<path fill="#913A3C" opacity="1.000000" stroke="none" 
	d="
M252.515305,483.720795 
	C251.967819,485.526489 251.151794,487.566742 249.959061,489.623596 
	C250.470490,487.745270 251.358612,485.850342 252.515305,483.720795 
z"/>
<path fill="#8C3234" opacity="1.000000" stroke="none" 
	d="
M84.000473,477.192566 
	C85.725853,477.577667 87.648499,478.173279 89.615044,479.126221 
	C87.838539,478.790070 86.018143,478.096558 84.000473,477.192566 
z"/>
<path fill="#8C3234" opacity="1.000000" stroke="none" 
	d="
M91.827972,480.733917 
	C93.266052,481.261902 94.910019,482.034943 96.542175,483.167847 
	C95.031525,482.678162 93.532692,481.828583 91.827972,480.733917 
z"/>
<path fill="#8C3234" opacity="1.000000" stroke="none" 
	d="
M109.604248,495.863953 
	C110.624435,496.851685 111.769676,498.127472 112.908829,499.768188 
	C111.844925,498.806091 110.787102,497.479065 109.604248,495.863953 
z"/>
<path fill="#7F282A" opacity="1.000000" stroke="none" 
	d="
M86.789886,101.613022 
	C87.739372,102.156540 88.840637,102.948235 89.924301,104.071121 
	C88.918350,103.555275 87.930008,102.708244 86.789886,101.613022 
z"/>
<path fill="#8C3234" opacity="1.000000" stroke="none" 
	d="
M114.913605,503.390076 
	C115.817200,504.281219 116.771149,505.494965 117.589180,507.047791 
	C116.623489,506.162140 115.793724,504.937408 114.913605,503.390076 
z"/>
<path fill="#913A3C" opacity="1.000000" stroke="none" 
	d="
M203.606369,477.326172 
	C204.751266,476.613983 206.257599,475.857391 208.169403,475.160980 
	C207.039185,475.907990 205.503494,476.594879 203.606369,477.326172 
z"/>
<path fill="#913A3C" opacity="1.000000" stroke="none" 
	d="
M228.945343,511.640045 
	C228.270386,512.557495 227.330902,513.614746 226.050232,514.730591 
	C226.699646,513.786011 227.690247,512.782959 228.945343,511.640045 
z"/>
<path fill="#913A3C" opacity="1.000000" stroke="none" 
	d="
M246.403214,493.778290 
	C245.827774,494.911438 244.970688,496.178040 243.796478,497.342102 
	C244.360092,496.130280 245.240829,495.021027 246.403214,493.778290 
z"/>
<path fill="#8C3234" opacity="1.000000" stroke="none" 
	d="
M96.726349,483.776093 
	C97.875603,484.301605 99.204842,485.081299 100.474754,486.202087 
	C99.245735,485.705566 98.076035,484.867920 96.726349,483.776093 
z"/>
<path fill="#913A3C" opacity="1.000000" stroke="none" 
	d="
M249.315338,489.807068 
	C249.125946,490.621216 248.682938,491.592621 247.873856,492.519531 
	C248.025757,491.638153 248.543747,490.801208 249.315338,489.807068 
z"/>
<path fill="#913A3C" opacity="1.000000" stroke="none" 
	d="
M200.408539,536.788940 
	C199.866653,537.091431 198.969086,537.490112 197.993652,537.605591 
	C198.628128,537.176697 199.340485,537.030945 200.408539,536.788940 
z"/>
<path fill="#913A3C" opacity="1.000000" stroke="none" 
	d="
M208.589935,529.848999 
	C208.043777,530.716309 207.195480,531.695984 206.010132,532.708618 
	C206.544647,531.814880 207.416214,530.888184 208.589935,529.848999 
z"/>
<path fill="#9E2528" opacity="1.000000" stroke="none" 
	d="
M168.840347,471.799622 
	C168.012009,471.962524 166.869843,471.977081 165.423843,471.834839 
	C166.255508,471.669159 167.391022,471.660217 168.840347,471.799622 
z"/>
<path fill="#913A3C" opacity="1.000000" stroke="none" 
	d="
M218.919037,520.618408 
	C218.584106,521.226501 217.989883,521.955933 217.055817,522.739929 
	C217.363907,522.109619 218.011841,521.424622 218.919037,520.618408 
z"/>
<path fill="#8C3234" opacity="1.000000" stroke="none" 
	d="
M112.913986,500.372192 
	C113.549911,500.859314 114.235657,501.656891 114.909195,502.794250 
	C114.252594,502.316895 113.608192,501.499786 112.913986,500.372192 
z"/>
<path fill="#913A3C" opacity="1.000000" stroke="none" 
	d="
M196.027283,535.268555 
	C195.987061,534.975586 196.387100,534.931519 196.587677,534.948120 
	C196.984604,535.503784 197.180954,536.042786 197.491974,536.847351 
	C197.093597,536.595825 196.580551,536.078674 196.027283,535.268555 
z"/>
<path fill="#913A3C" opacity="1.000000" stroke="none" 
	d="
M216.500702,522.825867 
	C216.292145,523.372437 215.800964,524.020020 214.983047,524.682861 
	C215.176910,524.107666 215.697479,523.517273 216.500702,522.825867 
z"/>
<path fill="#913A3C" opacity="1.000000" stroke="none" 
	d="
M214.416382,524.749878 
	C214.207886,525.309875 213.722168,525.962769 212.901672,526.572266 
	C213.090988,525.966919 213.615067,525.404846 214.416382,524.749878 
z"/>
<path fill="#913A3C" opacity="1.000000" stroke="none" 
	d="
M242.993988,497.698425 
	C242.879456,498.232666 242.546356,498.906616 241.871979,499.523254 
	C241.945602,498.923370 242.360504,498.380737 242.993988,497.698425 
z"/>
<path fill="#8C3234" opacity="1.000000" stroke="none" 
	d="
M103.773773,489.549011 
	C104.340294,489.733398 105.020355,490.199585 105.728561,491.000427 
	C105.133575,490.833649 104.510437,490.332245 103.773773,489.549011 
z"/>
<path fill="#8C3234" opacity="1.000000" stroke="none" 
	d="
M89.838669,479.699158 
	C90.290512,479.581024 90.920364,479.686737 91.587708,480.144043 
	C91.089027,480.304749 90.552856,480.113892 89.838669,479.699158 
z"/>
<path fill="#913A3C" opacity="1.000000" stroke="none" 
	d="
M211.183960,527.620117 
	C211.121429,527.971130 210.808899,528.439270 210.162537,528.920105 
	C210.197098,528.534302 210.565521,528.135742 211.183960,527.620117 
z"/>
<path fill="#913A3C" opacity="1.000000" stroke="none" 
	d="
M202.150375,535.556519 
	C202.079758,535.918091 201.746033,536.359192 201.075180,536.759155 
	C201.121124,536.357361 201.504196,535.996704 202.150375,535.556519 
z"/>
<path fill="#79171A" opacity="1.000000" stroke="none" 
	d="
M257.850098,599.388428 
	C258.337067,599.345154 258.970703,599.585754 259.633026,600.192749 
	C259.106750,600.263489 258.551758,599.967896 257.850098,599.388428 
z"/>
<path fill="#913A3C" opacity="1.000000" stroke="none" 
	d="
M201.657990,478.374207 
	C201.788391,478.018738 202.201065,477.609009 202.948334,477.268005 
	C202.835373,477.664490 202.387802,477.992218 201.657990,478.374207 
z"/>
<path fill="#8C3234" opacity="1.000000" stroke="none" 
	d="
M117.558792,507.727905 
	C117.924316,507.848358 118.350479,508.246490 118.687477,508.986969 
	C118.272026,508.888092 117.945732,508.446838 117.558792,507.727905 
z"/>
<path fill="#8C3234" opacity="1.000000" stroke="none" 
	d="
M101.703247,487.643829 
	C101.943077,487.535248 102.285507,487.662262 102.653946,488.084595 
	C102.388588,488.213104 102.097214,488.046265 101.703247,487.643829 
z"/>
<path fill="#913A3C" opacity="1.000000" stroke="none" 
	d="
M212.292557,526.658386 
	C212.374359,526.904785 212.254150,527.212769 211.862213,527.449341 
	C211.664810,527.088440 211.831482,526.869141 212.292557,526.658386 
z"/>
<path fill="#913A3C" opacity="1.000000" stroke="none" 
	d="
M240.296661,500.693970 
	C240.401627,500.931396 240.288177,501.256378 239.890503,501.575989 
	C239.648666,501.238800 239.806000,500.975800 240.296661,500.693970 
z"/>
<path fill="#913A3C" opacity="1.000000" stroke="none" 
	d="
M241.216400,499.694763 
	C241.328247,499.924103 241.240829,500.245636 240.872406,500.550354 
	C240.627304,500.224213 240.769211,499.975342 241.216400,499.694763 
z"/>
<path fill="#913A3C" opacity="1.000000" stroke="none" 
	d="
M205.476135,532.765259 
	C205.560181,533.004211 205.394623,533.321594 204.945435,533.664429 
	C204.850037,533.407837 205.038269,533.125793 205.476135,532.765259 
z"/>
<path fill="#913A3C" opacity="1.000000" stroke="none" 
	d="
M204.442169,533.736694 
	C204.520309,533.979187 204.357666,534.293091 203.910065,534.602051 
	C203.817200,534.334167 204.009293,534.071106 204.442169,533.736694 
z"/>
<path fill="#8C3234" opacity="1.000000" stroke="none" 
	d="
M100.703957,486.842590 
	C100.924355,486.712982 101.261597,486.773865 101.604446,487.126953 
	C101.296890,487.392853 101.033806,487.264191 100.703957,486.842590 
z"/>
<path fill="#913A3C" opacity="1.000000" stroke="none" 
	d="
M203.376373,534.671570 
	C203.436813,534.921082 203.285019,535.216919 202.866699,535.432617 
	C202.696518,535.059448 202.884491,534.847900 203.376373,534.671570 
z"/>
<path fill="#913A3C" opacity="1.000000" stroke="none" 
	d="
M239.328583,501.705658 
	C239.431274,501.944092 239.308044,502.269196 238.899994,502.598206 
	C238.656754,502.259399 238.819260,501.989502 239.328583,501.705658 
z"/>
<path fill="#8C3234" opacity="1.000000" stroke="none" 
	d="
M108.663605,494.611450 
	C108.918365,494.547546 109.235306,494.705719 109.476486,495.149658 
	C109.096062,495.324158 108.871071,495.123535 108.663605,494.611450 
z"/>
<path fill="#913A3C" opacity="1.000000" stroke="none" 
	d="
M247.208679,492.732910 
	C247.338531,492.945831 247.270157,493.277893 246.922913,493.646820 
	C246.658493,493.359039 246.780609,493.081818 247.208679,492.732910 
z"/>
<path fill="#8C3234" opacity="1.000000" stroke="none" 
	d="
M107.721619,493.555542 
	C107.969681,493.473907 108.296234,493.640442 108.622070,494.102905 
	C108.347610,494.200439 108.073868,494.002075 107.721619,493.555542 
z"/>
<path fill="#A02729" opacity="1.000000" stroke="none" 
	d="
M338.799927,582.010376 
	C339.067871,582.076111 339.102081,582.294861 338.941589,582.675049 
	C338.614990,582.643066 338.554779,582.418701 338.799927,582.010376 
z"/>
<path fill="#8C3234" opacity="1.000000" stroke="none" 
	d="
M106.752853,492.515076 
	C106.995743,492.431366 107.322708,492.602386 107.674866,493.066254 
	C107.412338,493.162659 107.124634,492.966187 106.752853,492.515076 
z"/>
<path fill="#8C3234" opacity="1.000000" stroke="none" 
	d="
M105.763412,491.508148 
	C106.005867,491.418488 106.335846,491.585968 106.705582,492.044373 
	C106.447197,492.145294 106.149071,491.955292 105.763412,491.508148 
z"/>
<path fill="#8C3234" opacity="1.000000" stroke="none" 
	d="
M102.732819,488.581482 
	C102.972244,488.476654 103.311394,488.618652 103.695541,489.051331 
	C103.437881,489.170776 103.135216,488.999573 102.732819,488.581482 
z"/>
<path fill="#913A3C" opacity="1.000000" stroke="none" 
	d="
M238.356888,502.708557 
	C238.454941,502.949493 238.322037,503.272949 237.904327,503.599854 
	C237.666885,503.256805 237.835678,502.986084 238.356888,502.708557 
z"/>
<path fill="#913A3C" opacity="1.000000" stroke="none" 
	d="
M237.359390,503.710815 
	C237.455048,503.951294 237.320114,504.273376 236.900299,504.596313 
	C236.664291,504.251007 236.835403,503.982727 237.359390,503.710815 
z"/>
<path fill="#913A3C" opacity="1.000000" stroke="none" 
	d="
M220.128632,519.696533 
	C220.231079,519.644653 220.451874,520.071716 220.451874,520.071716 
	C220.451874,520.071716 220.096069,520.392334 219.907684,520.238525 
	C219.719299,520.084778 220.026184,519.748413 220.128632,519.696533 
z"/>
<path fill="#913A3C" opacity="1.000000" stroke="none" 
	d="
M221.222229,518.655212 
	C221.303589,518.891174 221.210129,519.183655 220.865311,519.381470 
	C220.680618,519.036438 220.825104,518.844727 221.222229,518.655212 
z"/>
<path fill="#913A3C" opacity="1.000000" stroke="none" 
	d="
M222.353806,517.678101 
	C222.426544,517.924438 222.284500,518.231506 221.866425,518.478821 
	C221.678619,518.116028 221.861496,517.889282 222.353806,517.678101 
z"/>
<path fill="#913A3C" opacity="1.000000" stroke="none" 
	d="
M223.415588,516.720947 
	C223.497696,516.966064 223.341522,517.282227 222.899658,517.588745 
	C222.678314,517.228455 222.866104,516.966064 223.415588,516.720947 
z"/>
<path fill="#913A3C" opacity="1.000000" stroke="none" 
	d="
M236.356567,504.702759 
	C236.448837,504.944000 236.313583,505.263947 235.894562,505.574707 
	C235.668274,505.227997 235.841019,504.966644 236.356567,504.702759 
z"/>
<path fill="#913A3C" opacity="1.000000" stroke="none" 
	d="
M224.462494,515.754822 
	C224.545883,515.996460 224.381317,516.313293 223.931763,516.645508 
	C223.836029,516.383972 224.025299,516.106995 224.462494,515.754822 
z"/>
<path fill="#913A3C" opacity="1.000000" stroke="none" 
	d="
M225.518646,514.796875 
	C225.595322,515.032288 225.417862,515.343506 224.958893,515.685303 
	C224.873093,515.434875 225.068802,515.153809 225.518646,514.796875 
z"/>
<path fill="#913A3C" opacity="1.000000" stroke="none" 
	d="
M235.328430,505.702881 
	C235.423859,505.941376 235.296600,506.262573 234.885056,506.574341 
	C234.654282,506.230713 234.822617,505.970978 235.328430,505.702881 
z"/>
<path fill="#913A3C" opacity="1.000000" stroke="none" 
	d="
M230.112701,510.706238 
	C230.218964,510.652435 230.446075,511.080017 230.446075,511.080017 
	C230.446075,511.080017 230.092346,511.408081 229.895294,511.262787 
	C229.698242,511.117493 230.006454,510.760040 230.112701,510.706238 
z"/>
<path fill="#913A3C" opacity="1.000000" stroke="none" 
	d="
M231.179535,509.664886 
	C231.264557,509.897003 231.186157,510.182983 230.864014,510.366791 
	C230.676392,510.027710 230.808350,509.845764 231.179535,509.664886 
z"/>
<path fill="#913A3C" opacity="1.000000" stroke="none" 
	d="
M232.255402,508.657593 
	C232.341934,508.898132 232.235077,509.203125 231.861069,509.438293 
	C231.660690,509.088379 231.816711,508.872925 232.255402,508.657593 
z"/>
<path fill="#913A3C" opacity="1.000000" stroke="none" 
	d="
M233.263062,507.676025 
	C233.359756,507.914673 233.251419,508.232544 232.862305,508.511353 
	C232.639450,508.166229 232.798279,507.927185 233.263062,507.676025 
z"/>
<path fill="#913A3C" opacity="1.000000" stroke="none" 
	d="
M234.336487,506.686035 
	C234.419434,506.927032 234.285797,507.243408 233.869659,507.522369 
	C233.667603,507.172272 233.845200,506.931091 234.336487,506.686035 
z"/>
<path fill="#FDFBFA" opacity="1.000000" stroke="none" 
	d="
M300.891907,152.272095 
	C303.874603,158.920822 304.050354,165.592133 301.281067,172.383957 
	C290.949097,197.723755 275.044556,219.680374 259.218048,241.676773 
	C257.781921,243.672775 255.919220,245.537415 253.863647,246.851517 
	C252.448196,247.756409 250.357208,247.604614 248.568130,247.925079 
	C248.287628,246.102325 247.550507,244.213440 247.803299,242.467911 
	C249.106812,233.466507 251.623489,224.532730 251.913528,215.517334 
	C252.377411,201.098053 245.893387,190.241196 232.018539,184.559174 
	C230.333878,183.869278 228.710220,182.977844 227.164459,182.010223 
	C219.081329,176.950241 218.412430,170.552155 226.678589,165.916931 
	C236.895676,160.187729 247.949844,155.917648 258.768555,151.313766 
	C262.403839,149.766769 266.425568,149.127823 271.063110,147.951538 
	C280.167908,146.210342 288.463898,145.172806 296.635986,148.528244 
	C296.635986,148.528244 296.722778,148.382278 296.815125,148.652832 
	C297.579468,149.337921 298.251434,149.752472 298.923401,150.167007 
	C298.923401,150.167007 298.925262,150.075943 299.031677,150.355133 
	C299.722687,151.180252 300.307281,151.726166 300.891907,152.272095 
z"/>
<path fill="#FDF8F8" opacity="1.000000" stroke="none" 
	d="
M257.342499,260.990845 
	C257.818329,259.733673 258.413269,258.386902 259.420013,257.516510 
	C267.225525,250.767975 275.301147,244.319656 282.908356,237.357956 
	C288.611755,232.138580 293.744080,226.295227 299.653442,220.189499 
	C298.318115,227.956329 297.361176,235.579681 295.647125,243.028839 
	C292.789032,255.450150 289.905121,267.899323 286.204102,280.085297 
	C280.064148,300.301422 269.064240,316.656616 248.521500,325.141418 
	C243.371017,327.268677 238.526794,328.405609 233.170578,327.007935 
	C227.632950,325.562836 224.697205,321.591370 224.228867,316.234650 
	C222.876511,300.766785 227.757278,287.242004 238.853210,276.485901 
	C241.640625,273.783905 246.472275,272.424896 250.530319,271.987427 
	C255.982864,271.399658 258.880890,275.437897 258.188507,280.999390 
	C257.590210,285.805573 254.171829,290.720306 249.700333,293.654236 
	C247.514740,292.623627 245.698578,291.138824 243.832611,291.073334 
	C242.144119,291.014069 239.178726,292.229065 238.923203,293.365082 
	C238.285782,296.198914 238.636520,299.476410 242.235016,300.717987 
	C243.466537,301.142914 244.848312,301.243591 246.167877,301.284271 
	C255.389847,301.568573 263.486816,294.485382 266.733215,283.356201 
	C269.676239,273.266937 267.066833,266.877899 257.342499,260.990845 
z"/>
<path fill="#FDFBFA" opacity="1.000000" stroke="none" 
	d="
M186.197723,229.864960 
	C184.796417,221.815079 186.882507,214.875473 190.779984,208.448486 
	C194.983261,201.517258 201.235184,196.890121 208.716568,194.012070 
	C217.040833,190.809723 225.931580,194.492676 232.111404,203.685989 
	C241.401581,217.506363 242.820190,232.693451 239.622101,248.637848 
	C239.136566,251.058563 239.071976,253.576920 238.447266,255.954056 
	C236.488800,263.406219 236.421158,263.388458 227.336456,269.130310 
	C226.647675,268.357300 225.647186,267.658447 225.233505,266.705017 
	C220.823441,256.540680 212.809128,250.086746 203.317627,245.087646 
	C199.204391,242.921265 194.783569,241.104462 191.198669,238.253464 
	C188.890503,236.417831 187.848923,232.989609 186.197723,229.864960 
z"/>
<path fill="#FDF8F8" opacity="1.000000" stroke="none" 
	d="
M157.865082,271.927917 
	C154.785645,256.562195 166.238007,244.822388 181.659225,247.554291 
	C198.504776,250.538528 211.290222,260.225433 222.111465,273.164337 
	C219.363785,277.764557 216.257431,279.080841 210.974274,278.027130 
	C200.088181,275.855927 189.624939,277.924652 180.085922,283.880219 
	C178.398788,284.933563 176.744919,286.048279 175.007065,287.010742 
	C170.868591,289.302673 164.857193,287.895325 162.729156,283.780243 
	C160.838043,280.123291 159.536514,276.161438 157.865082,271.927917 
z"/>
<path fill="#FDF8F7" opacity="1.000000" stroke="none" 
	d="
M312.947144,363.452820 
	C311.098480,353.601349 309.535339,352.391571 299.214294,352.415771 
	C294.478394,352.426880 290.263550,349.034851 290.527649,344.276550 
	C291.031647,335.197662 291.947052,326.109741 293.335632,317.125092 
	C294.046021,312.528809 296.187653,311.851349 299.974640,314.453186 
	C317.104584,326.222290 330.254639,340.650269 327.826263,363.270477 
	C326.646759,374.257507 321.196411,383.689484 312.111847,390.544891 
	C311.474396,391.025909 310.322540,390.825287 309.709351,390.903473 
	C310.818359,381.748230 311.900085,372.818237 312.947144,363.452820 
z"/>
<path fill="#852624" opacity="1.000000" stroke="none" 
	d="
M296.599426,148.142303 
	C288.463898,145.172806 280.167908,146.210342 271.432251,147.814011 
	C273.139893,146.985458 275.220856,145.671478 277.411102,145.452927 
	C283.920380,144.803406 290.572235,143.789124 296.599426,148.142303 
z"/>
<path fill="#731214" opacity="1.000000" stroke="none" 
	d="
M192.782242,309.550110 
	C182.638290,309.799683 172.301514,309.842102 161.501785,309.809448 
	C161.519424,309.490021 162.000031,309.245697 163.222687,308.990417 
	C172.962921,308.967468 181.961105,308.955566 190.959290,308.943665 
	C191.502670,309.076752 192.046051,309.209839 192.782242,309.550110 
z"/>
<path fill="#A23135" opacity="1.000000" stroke="none" 
	d="
M190.663239,308.658325 
	C181.961105,308.955566 172.962921,308.967468 163.500656,308.964233 
	C166.729156,308.633087 170.418823,308.102295 174.115005,308.052063 
	C179.529953,307.978485 184.949570,308.249084 190.663239,308.658325 
z"/>
<path fill="#852624" opacity="1.000000" stroke="none" 
	d="
M300.887054,151.915985 
	C300.307281,151.726166 299.722687,151.180252 298.988647,150.370041 
	C299.520203,150.590469 300.201202,151.075180 300.887054,151.915985 
z"/>
<path fill="#852624" opacity="1.000000" stroke="none" 
	d="
M298.832703,149.846863 
	C298.251434,149.752472 297.579468,149.337921 296.734131,148.678253 
	C297.287811,148.797638 298.014893,149.162170 298.832703,149.846863 
z"/>
<path fill="#AE2A2E" opacity="1.000000" stroke="none" 
	d="
M340.318848,584.695923 
	C340.024872,553.320557 340.019257,521.645752 340.032654,489.507874 
	C340.367279,490.276886 340.956360,491.508545 340.958466,492.741180 
	C341.009644,522.482910 341.001190,552.224670 340.981537,581.966431 
	C340.980988,582.776550 340.737457,583.586487 340.318848,584.695923 
z"/>
</svg>